<?xml version="1.0" encoding="UTF-8"?>
<svg width="329px" height="137px" viewBox="0 0 329 137" version="1.1" xmlns="http://www.w3.org/2000/svg" xmlns:xlink="http://www.w3.org/1999/xlink">
    <!-- Generator: Sketch 53.1 (72631) - https://sketchapp.com -->
    <title>logo-pag-academy</title>
    <desc>Created with Sketch.</desc>
    <g id="Page-1" stroke="none" stroke-width="1" fill="none" fill-rule="evenodd">
        <g id="Desktop" transform="translate(-556.000000, -434.000000)">
            <g id="logo-pag-academy" transform="translate(554.000000, 434.000000)">
                <text id="pag.academy" font-family="BalooBhai-Regular, Baloo Bhai" font-size="55" font-weight="normal">
                    <tspan x="0.3175" y="127" fill="#FF961E">pag</tspan>
                    <tspan x="93.5975" y="127" fill="#1182BE">.</tspan>
                    <tspan x="106.6875" y="127" fill="#1182BE">academy</tspan>
                </text>
                <path d="M212.430705,20.00047 L197.000705,0.85547 C196.430395,0.28516 195.856205,1.42108547e-14 195.285905,1.42108547e-14 L138.140905,1.42108547e-14 C137.285435,1.42108547e-14 136.715105,0.28516 136.430005,0.85547 L121,20.00047 L139.570005,20.00047 L139.570005,28.57077 L138.429405,28.57077 C133.573895,28.57077 129.573895,32.57077 129.573895,37.42627 L129.573895,59.71127 C129.573895,64.56677 133.573895,68.56677 138.429405,68.56677 L189.284395,68.56677 C194.139895,68.56677 198.139895,64.56677 198.139895,59.71127 L198.139895,37.42627 C198.139895,32.57077 194.139895,28.57077 189.284395,28.57077 L188.143795,28.57077 L188.143795,20.00047 L203.858795,20.00047 L203.858795,58.00047 C202.143995,58.85594 201.003295,60.85597 201.003295,62.85597 C201.003295,66.00047 203.573595,68.57077 206.718095,68.57077 C209.862595,68.57077 212.432895,66.00047 212.432895,62.85597 C212.432895,60.85597 211.288395,58.85597 209.577395,58.00047 L209.569585,20.00047 L212.430705,20.00047 Z M146.715705,48.57047 C143.571205,48.57047 141.000905,46.00017 141.000905,42.85567 C141.000905,39.71117 143.571205,37.14087 146.715705,37.14087 C149.860205,37.14087 152.430505,39.71117 152.430505,42.85567 C152.430505,46.00017 149.860205,48.57047 146.715705,48.57047 Z M176.145705,60.85547 C170.854215,62.050038 167.045048,62.647322 164.718205,62.647322 C161.966159,62.647322 158.156992,62.050038 153.290705,60.85547 C151.861005,60.85547 150.435205,59.42577 150.435205,57.99997 C150.435205,56.57027 151.864905,55.14447 153.290705,55.14447 L176.145705,55.14447 C177.575405,55.14447 179.001205,56.57417 179.001205,57.99997 C179.001205,59.42967 177.860605,60.85547 176.145705,60.85547 Z M181.001205,48.57047 C177.856705,48.57047 175.286405,46.00017 175.286405,42.85567 C175.286405,39.71117 177.856705,37.14087 181.001205,37.14087 C184.145705,37.14087 186.716005,39.71117 186.716005,42.85567 C186.716005,46.00017 184.145705,48.57047 181.001205,48.57047 Z" id="Fill-1" fill="#1182BE"></path>
            </g>
        </g>
    </g>
</svg>